<svg xmlns="http://www.w3.org/2000/svg" xmlns:xlink="http://www.w3.org/1999/xlink" width="500" zoomAndPan="magnify" viewBox="0 0 375 374.999991" height="500" preserveAspectRatio="xMidYMid meet" version="1.0"><defs><g/><clipPath id="007636a036"><path d="M 72.929688 157.726562 L 82.519531 157.726562 L 82.519531 167.277344 L 72.929688 167.277344 Z M 72.929688 157.726562 " clip-rule="nonzero"/></clipPath><clipPath id="25960e80f5"><path d="M 77.707031 157.726562 L 77.742188 157.726562 C 80.378906 157.726562 82.519531 159.863281 82.519531 162.5 C 82.519531 165.140625 80.378906 167.277344 77.742188 167.277344 L 77.707031 167.277344 C 75.066406 167.277344 72.929688 165.140625 72.929688 162.5 C 72.929688 159.863281 75.066406 157.726562 77.707031 157.726562 Z M 77.707031 157.726562 " clip-rule="nonzero"/></clipPath><clipPath id="9a18d50c91"><path d="M 134.429688 156.976562 L 144.019531 156.976562 L 144.019531 166.527344 L 134.429688 166.527344 Z M 134.429688 156.976562 " clip-rule="nonzero"/></clipPath><clipPath id="6d07aef0dd"><path d="M 139.207031 156.976562 L 139.242188 156.976562 C 141.878906 156.976562 144.019531 159.113281 144.019531 161.75 C 144.019531 164.390625 141.878906 166.527344 139.242188 166.527344 L 139.207031 166.527344 C 136.566406 166.527344 134.429688 164.390625 134.429688 161.75 C 134.429688 159.113281 136.566406 156.976562 139.207031 156.976562 Z M 139.207031 156.976562 " clip-rule="nonzero"/></clipPath></defs><g fill="#000000" fill-opacity="1"><g transform="translate(25.660297, 209.999986)"><g><path d="M 19.25 0.703125 C 14.582031 0.703125 10.847656 -0.914062 8.046875 -4.15625 C 5.242188 -7.40625 3.84375 -12.25 3.84375 -18.6875 C 3.84375 -25.125 5.253906 -29.988281 8.078125 -33.28125 C 10.898438 -36.570312 14.644531 -38.21875 19.3125 -38.21875 C 22.207031 -38.21875 24.578125 -37.679688 26.421875 -36.609375 C 28.265625 -35.535156 29.769531 -34.226562 30.9375 -32.6875 L 31.359375 -32.6875 C 31.265625 -33.289062 31.171875 -34.1875 31.078125 -35.375 C 30.984375 -36.570312 30.9375 -37.519531 30.9375 -38.21875 L 30.9375 -53.203125 L 37.09375 -53.203125 L 37.09375 0 L 32.125 0 L 31.21875 -5.046875 L 30.9375 -5.046875 C 29.820312 -3.453125 28.328125 -2.09375 26.453125 -0.96875 C 24.585938 0.144531 22.1875 0.703125 19.25 0.703125 Z M 20.234375 -4.40625 C 24.203125 -4.40625 26.988281 -5.488281 28.59375 -7.65625 C 30.207031 -9.832031 31.015625 -13.113281 31.015625 -17.5 L 31.015625 -18.625 C 31.015625 -23.289062 30.242188 -26.867188 28.703125 -29.359375 C 27.160156 -31.859375 24.3125 -33.109375 20.15625 -33.109375 C 16.84375 -33.109375 14.359375 -31.789062 12.703125 -29.15625 C 11.046875 -26.519531 10.21875 -22.984375 10.21875 -18.546875 C 10.21875 -14.066406 11.046875 -10.585938 12.703125 -8.109375 C 14.359375 -5.640625 16.867188 -4.40625 20.234375 -4.40625 Z M 20.234375 -4.40625 "/></g></g></g><g fill="#000000" fill-opacity="1"><g transform="translate(68.707944, 209.999986)"><g><path d="M 9.09375 -51.59375 C 10.03125 -51.59375 10.859375 -51.273438 11.578125 -50.640625 C 12.304688 -50.015625 12.671875 -49.023438 12.671875 -47.671875 C 12.671875 -46.316406 12.304688 -45.320312 11.578125 -44.6875 C 10.859375 -44.0625 10.03125 -43.75 9.09375 -43.75 C 8.070312 -43.75 7.207031 -44.0625 6.5 -44.6875 C 5.800781 -45.320312 5.453125 -46.316406 5.453125 -47.671875 C 5.453125 -49.023438 5.800781 -50.015625 6.5 -50.640625 C 7.207031 -51.273438 8.070312 -51.59375 9.09375 -51.59375 Z M 12.109375 -37.515625 L 12.109375 0 L 5.953125 0 L 5.953125 -37.515625 Z M 12.109375 -37.515625 "/></g></g></g><g fill="#000000" fill-opacity="1"><g transform="translate(86.76696, 209.999986)"><g><path d="M 19.25 -38.21875 C 21.71875 -38.21875 23.941406 -37.75 25.921875 -36.8125 C 27.910156 -35.882812 29.609375 -34.460938 31.015625 -32.546875 L 31.359375 -32.546875 L 32.203125 -37.515625 L 37.09375 -37.515625 L 37.09375 0.625 C 37.09375 6 35.726562 10.035156 33 12.734375 C 30.269531 15.441406 26.035156 16.796875 20.296875 16.796875 C 14.796875 16.796875 10.296875 16.003906 6.796875 14.421875 L 6.796875 8.75 C 10.472656 10.707031 15.09375 11.6875 20.65625 11.6875 C 23.875 11.6875 26.40625 10.738281 28.25 8.84375 C 30.09375 6.957031 31.015625 4.382812 31.015625 1.125 L 31.015625 -0.34375 C 31.015625 -0.90625 31.035156 -1.710938 31.078125 -2.765625 C 31.128906 -3.816406 31.175781 -4.550781 31.21875 -4.96875 L 30.9375 -4.96875 C 28.414062 -1.1875 24.539062 0.703125 19.3125 0.703125 C 14.46875 0.703125 10.675781 -1 7.9375 -4.40625 C 5.207031 -7.8125 3.84375 -12.570312 3.84375 -18.6875 C 3.84375 -24.664062 5.207031 -29.414062 7.9375 -32.9375 C 10.675781 -36.457031 14.445312 -38.21875 19.25 -38.21875 Z M 20.09375 -33.046875 C 16.96875 -33.046875 14.539062 -31.796875 12.8125 -29.296875 C 11.082031 -26.796875 10.21875 -23.238281 10.21875 -18.625 C 10.21875 -14 11.054688 -10.460938 12.734375 -8.015625 C 14.421875 -5.566406 16.921875 -4.34375 20.234375 -4.34375 C 24.015625 -4.34375 26.765625 -5.359375 28.484375 -7.390625 C 30.210938 -9.421875 31.078125 -12.695312 31.078125 -17.21875 L 31.078125 -18.6875 C 31.078125 -23.769531 30.191406 -27.429688 28.421875 -29.671875 C 26.648438 -31.921875 23.875 -33.046875 20.09375 -33.046875 Z M 20.09375 -33.046875 "/></g></g></g><g fill="#000000" fill-opacity="1"><g transform="translate(129.814607, 209.999986)"><g><path d="M 9.09375 -51.59375 C 10.03125 -51.59375 10.859375 -51.273438 11.578125 -50.640625 C 12.304688 -50.015625 12.671875 -49.023438 12.671875 -47.671875 C 12.671875 -46.316406 12.304688 -45.320312 11.578125 -44.6875 C 10.859375 -44.0625 10.03125 -43.75 9.09375 -43.75 C 8.070312 -43.75 7.207031 -44.0625 6.5 -44.6875 C 5.800781 -45.320312 5.453125 -46.316406 5.453125 -47.671875 C 5.453125 -49.023438 5.800781 -50.015625 6.5 -50.640625 C 7.207031 -51.273438 8.070312 -51.59375 9.09375 -51.59375 Z M 12.109375 -37.515625 L 12.109375 0 L 5.953125 0 L 5.953125 -37.515625 Z M 12.109375 -37.515625 "/></g></g></g><g fill="#000000" fill-opacity="1"><g transform="translate(147.873623, 209.999986)"><g><path d="M 12.109375 -53.203125 L 12.109375 -40.25 C 12.109375 -38.664062 12.070312 -37.179688 12 -35.796875 C 11.9375 -34.421875 11.859375 -33.335938 11.765625 -32.546875 L 12.109375 -32.546875 C 13.179688 -34.140625 14.648438 -35.472656 16.515625 -36.546875 C 18.378906 -37.617188 20.785156 -38.15625 23.734375 -38.15625 C 28.398438 -38.15625 32.144531 -36.53125 34.96875 -33.28125 C 37.789062 -30.039062 39.203125 -25.203125 39.203125 -18.765625 C 39.203125 -12.316406 37.773438 -7.457031 34.921875 -4.1875 C 32.078125 -0.925781 28.347656 0.703125 23.734375 0.703125 C 20.785156 0.703125 18.378906 0.164062 16.515625 -0.90625 C 14.648438 -1.976562 13.179688 -3.265625 12.109375 -4.765625 L 11.625 -4.765625 L 10.359375 0 L 5.953125 0 L 5.953125 -53.203125 Z M 22.6875 -33.046875 C 18.664062 -33.046875 15.894531 -31.898438 14.375 -29.609375 C 12.863281 -27.328125 12.109375 -23.78125 12.109375 -18.96875 L 12.109375 -18.6875 C 12.109375 -14.070312 12.863281 -10.535156 14.375 -8.078125 C 15.894531 -5.628906 18.707031 -4.40625 22.8125 -4.40625 C 26.175781 -4.40625 28.6875 -5.640625 30.34375 -8.109375 C 32 -10.585938 32.828125 -14.160156 32.828125 -18.828125 C 32.828125 -28.304688 29.445312 -33.046875 22.6875 -33.046875 Z M 22.6875 -33.046875 "/></g></g></g><g fill="#000000" fill-opacity="1"><g transform="translate(190.92127, 209.999986)"><g><path d="M 20.4375 -38.21875 C 23.613281 -38.21875 26.367188 -37.515625 28.703125 -36.109375 C 31.035156 -34.710938 32.816406 -32.742188 34.046875 -30.203125 C 35.285156 -27.660156 35.90625 -24.6875 35.90625 -21.28125 L 35.90625 -17.5625 L 10.21875 -17.5625 C 10.3125 -13.320312 11.394531 -10.09375 13.46875 -7.875 C 15.550781 -5.65625 18.457031 -4.546875 22.1875 -4.546875 C 24.570312 -4.546875 26.6875 -4.765625 28.53125 -5.203125 C 30.375 -5.648438 32.273438 -6.296875 34.234375 -7.140625 L 34.234375 -1.75 C 32.316406 -0.90625 30.425781 -0.285156 28.5625 0.109375 C 26.695312 0.503906 24.476562 0.703125 21.90625 0.703125 C 18.3125 0.703125 15.160156 -0.0195312 12.453125 -1.46875 C 9.753906 -2.914062 7.644531 -5.0625 6.125 -7.90625 C 4.601562 -10.757812 3.84375 -14.285156 3.84375 -18.484375 C 3.84375 -22.585938 4.53125 -26.109375 5.90625 -29.046875 C 7.289062 -31.984375 9.226562 -34.242188 11.71875 -35.828125 C 14.21875 -37.421875 17.125 -38.21875 20.4375 -38.21875 Z M 20.375 -33.1875 C 17.425781 -33.1875 15.097656 -32.238281 13.390625 -30.34375 C 11.691406 -28.457031 10.679688 -25.832031 10.359375 -22.46875 L 29.46875 -22.46875 C 29.425781 -25.644531 28.679688 -28.222656 27.234375 -30.203125 C 25.785156 -32.191406 23.5 -33.1875 20.375 -33.1875 Z M 20.375 -33.1875 "/></g></g></g><g fill="#000000" fill-opacity="1"><g transform="translate(230.399115, 209.999986)"><g><path d="M 18.484375 -4.34375 C 19.410156 -4.34375 20.363281 -4.410156 21.34375 -4.546875 C 22.320312 -4.691406 23.117188 -4.878906 23.734375 -5.109375 L 23.734375 -0.421875 C 23.078125 -0.0976562 22.140625 0.164062 20.921875 0.375 C 19.710938 0.59375 18.550781 0.703125 17.4375 0.703125 C 15.46875 0.703125 13.65625 0.363281 12 -0.3125 C 10.34375 -0.988281 9 -2.164062 7.96875 -3.84375 C 6.945312 -5.53125 6.4375 -7.890625 6.4375 -10.921875 L 6.4375 -32.765625 L 1.125 -32.765625 L 1.125 -35.703125 L 6.515625 -38.15625 L 8.953125 -46.125 L 12.59375 -46.125 L 12.59375 -37.515625 L 23.453125 -37.515625 L 23.453125 -32.765625 L 12.59375 -32.765625 L 12.59375 -11.0625 C 12.59375 -8.769531 13.140625 -7.078125 14.234375 -5.984375 C 15.335938 -4.890625 16.753906 -4.34375 18.484375 -4.34375 Z M 18.484375 -4.34375 "/></g></g></g><g fill="#000000" fill-opacity="1"><g transform="translate(255.667737, 209.999986)"><g><path d="M 18.484375 -4.34375 C 19.410156 -4.34375 20.363281 -4.410156 21.34375 -4.546875 C 22.320312 -4.691406 23.117188 -4.878906 23.734375 -5.109375 L 23.734375 -0.421875 C 23.078125 -0.0976562 22.140625 0.164062 20.921875 0.375 C 19.710938 0.59375 18.550781 0.703125 17.4375 0.703125 C 15.46875 0.703125 13.65625 0.363281 12 -0.3125 C 10.34375 -0.988281 9 -2.164062 7.96875 -3.84375 C 6.945312 -5.53125 6.4375 -7.890625 6.4375 -10.921875 L 6.4375 -32.765625 L 1.125 -32.765625 L 1.125 -35.703125 L 6.515625 -38.15625 L 8.953125 -46.125 L 12.59375 -46.125 L 12.59375 -37.515625 L 23.453125 -37.515625 L 23.453125 -32.765625 L 12.59375 -32.765625 L 12.59375 -11.0625 C 12.59375 -8.769531 13.140625 -7.078125 14.234375 -5.984375 C 15.335938 -4.890625 16.753906 -4.34375 18.484375 -4.34375 Z M 18.484375 -4.34375 "/></g></g></g><g fill="#000000" fill-opacity="1"><g transform="translate(280.936359, 209.999986)"><g><path d="M 20.4375 -38.21875 C 23.613281 -38.21875 26.367188 -37.515625 28.703125 -36.109375 C 31.035156 -34.710938 32.816406 -32.742188 34.046875 -30.203125 C 35.285156 -27.660156 35.90625 -24.6875 35.90625 -21.28125 L 35.90625 -17.5625 L 10.21875 -17.5625 C 10.3125 -13.320312 11.394531 -10.09375 13.46875 -7.875 C 15.550781 -5.65625 18.457031 -4.546875 22.1875 -4.546875 C 24.570312 -4.546875 26.6875 -4.765625 28.53125 -5.203125 C 30.375 -5.648438 32.273438 -6.296875 34.234375 -7.140625 L 34.234375 -1.75 C 32.316406 -0.90625 30.425781 -0.285156 28.5625 0.109375 C 26.695312 0.503906 24.476562 0.703125 21.90625 0.703125 C 18.3125 0.703125 15.160156 -0.0195312 12.453125 -1.46875 C 9.753906 -2.914062 7.644531 -5.0625 6.125 -7.90625 C 4.601562 -10.757812 3.84375 -14.285156 3.84375 -18.484375 C 3.84375 -22.585938 4.53125 -26.109375 5.90625 -29.046875 C 7.289062 -31.984375 9.226562 -34.242188 11.71875 -35.828125 C 14.21875 -37.421875 17.125 -38.21875 20.4375 -38.21875 Z M 20.375 -33.1875 C 17.425781 -33.1875 15.097656 -32.238281 13.390625 -30.34375 C 11.691406 -28.457031 10.679688 -25.832031 10.359375 -22.46875 L 29.46875 -22.46875 C 29.425781 -25.644531 28.679688 -28.222656 27.234375 -30.203125 C 25.785156 -32.191406 23.5 -33.1875 20.375 -33.1875 Z M 20.375 -33.1875 "/></g></g></g><g fill="#000000" fill-opacity="1"><g transform="translate(320.414216, 209.999986)"><g><path d="M 23.453125 -38.21875 C 24.148438 -38.21875 24.894531 -38.179688 25.6875 -38.109375 C 26.476562 -38.046875 27.203125 -37.941406 27.859375 -37.796875 L 27.09375 -32.125 C 26.488281 -32.269531 25.8125 -32.390625 25.0625 -32.484375 C 24.3125 -32.578125 23.632812 -32.625 23.03125 -32.625 C 21.113281 -32.625 19.316406 -32.097656 17.640625 -31.046875 C 15.960938 -29.992188 14.617188 -28.519531 13.609375 -26.625 C 12.609375 -24.738281 12.109375 -22.535156 12.109375 -20.015625 L 12.109375 0 L 5.953125 0 L 5.953125 -37.515625 L 10.984375 -37.515625 L 11.6875 -30.65625 L 11.96875 -30.65625 C 13.132812 -32.707031 14.6875 -34.476562 16.625 -35.96875 C 18.5625 -37.46875 20.835938 -38.21875 23.453125 -38.21875 Z M 23.453125 -38.21875 "/></g></g></g><g clip-path="url(#007636a036)"><g clip-path="url(#25960e80f5)"><path fill="#fe495c" d="M 72.929688 157.726562 L 82.519531 157.726562 L 82.519531 167.277344 L 72.929688 167.277344 Z M 72.929688 157.726562 " fill-opacity="1" fill-rule="nonzero"/></g></g><g clip-path="url(#9a18d50c91)"><g clip-path="url(#6d07aef0dd)"><path fill="#fd4457" d="M 134.429688 156.976562 L 144.019531 156.976562 L 144.019531 166.527344 L 134.429688 166.527344 Z M 134.429688 156.976562 " fill-opacity="1" fill-rule="nonzero"/></g></g></svg>